<svg width="65" height="65" viewBox="0 0 65 65" fill="none" xmlns="http://www.w3.org/2000/svg">
<circle cx="32.5" cy="32.5" r="32.5" fill="#E0247C"/>
<path d="M38.5004 31.0003C41.5379 31.0003 44.0004 33.4627 44.0004 36.5003C44.0004 39.5378 41.5379 42.0003 38.5004 42.0003C35.4628 42.0003 33.0004 39.5378 33.0004 36.5003C33.0004 33.4627 35.4628 31.0003 38.5004 31.0003ZM33.0226 32.9996C32.3755 34.01 32.0004 35.2113 32.0004 36.5003C32.0004 38.1444 32.6108 39.646 33.6175 40.7908C32.8153 40.9315 31.9423 41.0013 31.0004 41.0013C28.1109 41.0013 25.872 40.3447 24.3092 39.001C23.4806 38.2887 23.0039 37.2503 23.0039 36.1575V35.2502C23.0039 34.0075 24.0113 33.0002 25.2539 33.0002L33.0226 32.9996ZM36.0934 33.9665L36.0242 34.0244L35.9663 34.0936C35.8482 34.2642 35.8482 34.4917 35.9663 34.6623L36.0242 34.7315L37.7937 36.5009L36.0268 38.2677L35.9689 38.337C35.8508 38.5075 35.8508 38.7351 35.9689 38.9056L36.0268 38.9749L36.096 39.0327C36.2665 39.1508 36.4941 39.1508 36.6646 39.0327L36.7339 38.9749L38.5007 37.2079L40.2698 38.9771L40.339 39.035C40.5095 39.1531 40.7371 39.1531 40.9076 39.035L40.9769 38.9771L41.0347 38.9079C41.1528 38.7373 41.1528 38.5097 41.0347 38.3392L40.9769 38.27L39.2077 36.5009L40.9796 34.7316L41.0375 34.6623C41.1556 34.4918 41.1556 34.2642 41.0375 34.0937L40.9796 34.0244L40.9104 33.9666C40.7399 33.8485 40.5123 33.8485 40.3418 33.9666L40.2725 34.0244L38.5007 35.794L36.7313 34.0244L36.662 33.9665C36.5159 33.8653 36.3278 33.8508 36.1696 33.9231L36.0934 33.9665ZM31.0004 21.0049C33.7618 21.0049 36.0004 23.2435 36.0004 26.0049C36.0004 28.7663 33.7618 31.0049 31.0004 31.0049C28.2389 31.0049 26.0004 28.7663 26.0004 26.0049C26.0004 23.2435 28.2389 21.0049 31.0004 21.0049Z" fill="white"/>
</svg>
