<svg width="65" height="65" viewBox="0 0 65 65" fill="none" xmlns="http://www.w3.org/2000/svg">
<circle cx="32.5" cy="32.5" r="32.5" fill="#E0247C"/>
<path d="M39.5312 43C40.9817 43 42.3727 42.4238 43.3982 41.3982C44.4238 40.3727 45 38.9817 45 37.5312C45 36.0808 44.4238 34.6898 43.3982 33.6643C42.3727 32.6387 40.9817 32.0625 39.5312 32.0625C38.0808 32.0625 36.6898 32.6387 35.6643 33.6643C34.6387 34.6898 34.0625 36.0808 34.0625 37.5312C34.0625 38.9817 34.6387 40.3727 35.6643 41.3982C36.6898 42.4238 38.0808 43 39.5312 43ZM40.3125 35.1875V36.75H41.875C42.0822 36.75 42.2809 36.8323 42.4274 36.9788C42.5739 37.1253 42.6562 37.324 42.6562 37.5312C42.6562 37.7385 42.5739 37.9372 42.4274 38.0837C42.2809 38.2302 42.0822 38.3125 41.875 38.3125H40.3125V39.875C40.3125 40.0822 40.2302 40.2809 40.0837 40.4274C39.9372 40.5739 39.7385 40.6562 39.5312 40.6562C39.324 40.6562 39.1253 40.5739 38.9788 40.4274C38.8323 40.2809 38.75 40.0822 38.75 39.875V38.3125H37.1875C36.9803 38.3125 36.7816 38.2302 36.6351 38.0837C36.4886 37.9372 36.4062 37.7385 36.4062 37.5312C36.4062 37.324 36.4886 37.1253 36.6351 36.9788C36.7816 36.8323 36.9803 36.75 37.1875 36.75H38.75V35.1875C38.75 34.9803 38.8323 34.7816 38.9788 34.6351C39.1253 34.4886 39.324 34.4062 39.5312 34.4062C39.7385 34.4062 39.9372 34.4886 40.0837 34.6351C40.2302 34.7816 40.3125 34.9803 40.3125 35.1875ZM37.1875 25.8125C37.1875 27.0557 36.6936 28.248 35.8146 29.1271C34.9355 30.0061 33.7432 30.5 32.5 30.5C31.2568 30.5 30.0645 30.0061 29.1854 29.1271C28.3064 28.248 27.8125 27.0557 27.8125 25.8125C27.8125 24.5693 28.3064 23.377 29.1854 22.4979C30.0645 21.6189 31.2568 21.125 32.5 21.125C33.7432 21.125 34.9355 21.6189 35.8146 22.4979C36.6936 23.377 37.1875 24.5693 37.1875 25.8125Z" fill="white"/>
<path d="M23.125 38.3125C23.125 39.875 24.6875 39.875 24.6875 39.875H32.9C32.6346 39.1221 32.4993 38.3295 32.5 37.5312C32.5 36.5265 32.7153 35.5334 33.1315 34.6189C33.5476 33.7044 34.1549 32.8897 34.9125 32.2297C34.1833 32.1203 33.3792 32.0646 32.5 32.0625C24.6875 32.0625 23.125 36.75 23.125 38.3125Z" fill="white"/>
</svg>
