<svg width="15" height="22" viewBox="0 0 15 22" fill="none" xmlns="http://www.w3.org/2000/svg">
<g opacity="0.4">
<path d="M13.9841 16.8398L11.1641 19.6598" stroke="#DC0C6E" stroke-width="1.5" stroke-linecap="round" stroke-linejoin="round"/>
<path d="M13.9841 19.6598L11.1641 16.8398" stroke="#FD0C7E" stroke-width="1.5" stroke-linecap="round" stroke-linejoin="round"/>
</g>
<path opacity="0.4" d="M7.73471 9.62C7.63471 9.61 7.51472 9.61 7.40472 9.62C5.02477 9.54 3.13477 7.59 3.13477 5.19C3.13477 2.74 5.11477 0.75 7.57472 0.75C10.0247 0.75 12.0147 2.74 12.0147 5.19C12.0047 7.59 10.1147 9.54 7.73471 9.62Z" stroke="#FF1282" stroke-width="1.5" stroke-linecap="round" stroke-linejoin="round"/>
<path d="M7.57502 20.5602C5.75502 20.5602 3.945 20.1002 2.565 19.1802C0.145 17.5602 0.145 14.9202 2.565 13.3102C5.315 11.4702 9.82502 11.4702 12.575 13.3102" stroke="#DC0C6E" stroke-width="1.5" stroke-linecap="round" stroke-linejoin="round"/>
</svg>
