<svg width="40" height="40" viewBox="0 0 40 40" fill="none" xmlns="http://www.w3.org/2000/svg">
<path fill-rule="evenodd" clip-rule="evenodd" d="M19.9982 0C8.95545 0 0 9.1809 0 20.5068C0 29.5656 5.73007 37.2522 13.6775 39.9649C14.6782 40.1524 15.0428 39.5194 15.0428 38.9755C15.0428 38.4882 15.0256 37.1993 15.0158 35.4884C9.45272 36.7272 8.27895 32.7391 8.27895 32.7391C7.36916 30.37 6.0579 29.7393 6.0579 29.7393C4.24201 28.4679 6.19542 28.4931 6.19542 28.4931C8.20284 28.6379 9.25873 30.6068 9.25873 30.6068C11.0427 33.7398 13.9403 32.8347 15.0797 32.3098C15.2614 30.9855 15.7783 30.0815 16.3492 29.5693C11.9083 29.0506 7.23903 27.2921 7.23903 19.4343C7.23903 17.1948 8.01868 15.3657 9.29801 13.9318C9.09175 13.4132 8.40543 11.3285 9.49446 8.50485C9.49446 8.50485 11.1728 7.95344 14.9937 10.6059C16.5886 10.1514 18.3001 9.92483 20.0006 9.91601C21.6999 9.92483 23.4102 10.1514 25.0075 10.6059C28.8259 7.95344 30.5018 8.50485 30.5018 8.50485C31.5934 11.3285 30.907 13.4132 30.7021 13.9318C31.9837 15.3657 32.7572 17.1948 32.7572 19.4343C32.7572 27.3122 28.0806 29.0458 23.6263 29.5529C24.3433 30.1862 24.983 31.4375 24.983 33.3509C24.983 36.0914 24.9584 38.3032 24.9584 38.9755C24.9584 39.5243 25.3194 40.1626 26.3335 39.9624C34.2748 37.2445 40 29.5642 40 20.5068C40 9.1809 31.0444 0 19.9982 0Z" fill="#012140"/>
</svg>
