<svg width="35" height="27" viewBox="0 0 35 27" fill="none" xmlns="http://www.w3.org/2000/svg">
<path d="M29.6301 2.21308C27.3608 1.17092 24.9659 0.42753 22.5054 0.00151948C22.4831 -0.00223459 22.4602 0.00100767 22.4398 0.0108006C22.4195 0.0205934 22.4026 0.036456 22.3917 0.0562069C22.0832 0.603082 21.742 1.31839 21.5035 1.87839C18.8514 1.47625 16.1538 1.47625 13.5017 1.87839C13.2368 1.25405 12.9359 0.645626 12.6004 0.0562069C12.5894 0.036456 12.5726 0.0205934 12.5522 0.0108006C12.5318 0.00100767 12.5089 -0.00223459 12.4867 0.00151948C10.0257 0.425894 7.6304 1.16964 5.36196 2.21308C5.34246 2.22033 5.32617 2.23429 5.31603 2.25246C0.779152 9.03152 -0.465536 15.6443 0.144777 22.174C0.149152 22.2061 0.164464 22.2331 0.190714 22.255C2.83315 24.2111 5.78801 25.7051 8.92978 26.6737C8.95196 26.6807 8.9758 26.6805 8.99783 26.673C9.01986 26.6655 9.03893 26.6512 9.05228 26.6321C9.72748 25.7134 10.3239 24.7443 10.8417 23.725C10.8524 23.704 10.8561 23.6801 10.8522 23.6568C10.8482 23.6335 10.8369 23.6122 10.8198 23.5959L10.7804 23.5718C9.83837 23.2086 8.92568 22.7735 8.0504 22.2703C8.02597 22.2564 8.0078 22.2337 7.99965 22.2068C7.99151 22.18 7.99401 22.151 8.00665 22.1259L8.03946 22.0843C8.22467 21.9458 8.40551 21.8036 8.58196 21.6578C8.59742 21.6453 8.61597 21.6373 8.63562 21.6347C8.65528 21.632 8.67529 21.6347 8.69353 21.6425C14.4226 24.2587 20.6242 24.2587 26.2832 21.6425C26.302 21.6338 26.3229 21.6306 26.3434 21.6333C26.3639 21.636 26.3833 21.6445 26.3992 21.6578C26.5756 21.8036 26.7564 21.9458 26.9417 22.0843C26.957 22.0949 26.9695 22.1092 26.9778 22.1259C26.9861 22.1426 26.99 22.1611 26.9891 22.1797C26.9883 22.1984 26.9826 22.2165 26.9728 22.2323C26.963 22.2482 26.9492 22.2612 26.9329 22.2703C26.0614 22.7815 25.1472 23.2162 24.2007 23.5696C24.1856 23.5751 24.1719 23.5838 24.1606 23.5952C24.1493 23.6065 24.1405 23.6202 24.1351 23.6353C24.1298 23.6498 24.1276 23.6654 24.1287 23.6808C24.1299 23.6963 24.1343 23.7113 24.1417 23.725C24.6667 24.7421 25.2682 25.7134 25.9288 26.6321C25.9422 26.6512 25.9613 26.6655 25.9833 26.673C26.0053 26.6805 26.0292 26.6807 26.0513 26.6737C29.1993 25.7105 32.1594 24.216 34.8035 22.255C34.8167 22.2457 34.8276 22.2336 34.8355 22.2196C34.8435 22.2056 34.8482 22.1901 34.8495 22.174C35.5801 14.625 33.6267 8.06683 29.6738 2.25464C29.6704 2.24472 29.6646 2.23577 29.657 2.22854C29.6494 2.2213 29.6402 2.216 29.6301 2.21308ZM11.697 18.1971C9.97103 18.1971 8.55134 16.6134 8.55134 14.6709C8.55134 12.7284 9.94478 11.1425 11.697 11.1425C13.4623 11.1425 14.8688 12.7393 14.8426 14.6709C14.8426 16.6134 13.4492 18.1971 11.697 18.1971ZM23.3257 18.1971C21.602 18.1971 20.1801 16.6134 20.1801 14.6709C20.1801 12.7284 21.5735 11.1425 23.3257 11.1425C25.091 11.1425 26.4998 12.7393 26.4713 14.6709C26.4713 16.6134 25.091 18.1971 23.3257 18.1971Z" fill="white"/>
</svg>
