<svg width="35" height="35" viewBox="0 0 35 35" fill="none" xmlns="http://www.w3.org/2000/svg">
<g clip-path="url(#clip0_114_97)">
<path d="M0.719687 22.6034C1.81736 26.1919 4.03809 29.3332 7.05498 31.5648C10.0719 33.7965 13.7255 35.0006 17.4781 35C27.1556 35 35 27.1644 35 17.5C35 7.83563 27.1556 1.31203e-06 17.4803 1.31203e-06C13.0381 -0.00171715 8.76122 1.68472 5.51569 4.71784C2.27015 7.75096 0.298515 11.9041 0 16.3363L0.0065625 16.3494L9.42156 20.2191C10.2708 19.6572 11.2765 19.3791 12.2937 19.425L16.5812 13.2038L16.5791 13.1163C16.5808 11.3517 17.2824 9.65995 18.5299 8.41204C19.7774 7.16413 21.4689 6.46201 23.2334 6.45969C24.998 6.46201 26.6895 7.16413 27.937 8.41204C29.1845 9.65995 29.8861 11.3517 29.8878 13.1163C29.8871 14.0029 29.7096 14.8805 29.3655 15.6977C29.0214 16.5149 28.5178 17.2552 27.884 17.8753C27.2503 18.4954 26.4992 18.9828 25.6747 19.309C24.8502 19.6352 23.969 19.7936 23.0825 19.775L16.9487 24.15C16.9696 24.9604 16.7874 25.7631 16.4189 26.4852C16.0505 27.2073 15.5073 27.8258 14.8389 28.2844C14.1704 28.7431 13.3979 29.0274 12.5916 29.1114C11.7853 29.1955 10.9708 29.0766 10.2222 28.7656C9.50395 28.4657 8.86831 27.9976 8.36884 27.4007C7.86936 26.8037 7.52069 26.0955 7.35219 25.3356L0.721875 22.6034H0.719687Z" fill="white"/>
<path d="M10.6491 27.744C11.5605 28.0919 12.5715 28.0711 13.4678 27.686C14.3641 27.3009 15.0752 26.5819 15.4502 25.6813C15.8252 24.7807 15.8347 23.7695 15.4767 22.8621C15.1186 21.9547 14.4211 21.2224 13.5322 20.8206C12.6511 20.4517 11.6618 20.436 10.7694 20.7768L13.0072 21.7043C13.3419 21.8436 13.6458 22.0475 13.9017 22.3043C14.1576 22.5611 14.3604 22.8658 14.4985 23.2009C14.6366 23.5361 14.7074 23.8952 14.7067 24.2577C14.7061 24.6202 14.6341 24.979 14.4947 25.3137C14.3554 25.6484 14.1515 25.9523 13.8947 26.2082C13.6379 26.4641 13.3333 26.6668 12.9981 26.805C12.6629 26.9431 12.3039 27.0139 11.9414 27.0132C11.5788 27.0126 11.22 26.9405 10.8854 26.8012L8.71973 25.9043C9.11383 26.7341 9.8011 27.3908 10.6491 27.744ZM18.7997 13.1162C18.8003 14.2924 19.2675 15.4203 20.0988 16.2525C20.9301 17.0846 22.0576 17.5529 23.2338 17.5546C24.41 17.5529 25.5375 17.0846 26.3688 16.2525C27.2001 15.4203 27.6673 14.2924 27.6679 13.1162C27.6661 11.9407 27.1984 10.8139 26.3672 9.98275C25.5361 9.15158 24.4092 8.68386 23.2338 8.68213C22.0583 8.68386 20.9315 9.15158 20.1004 9.98275C19.2692 10.8139 18.8015 11.9407 18.7997 13.1162ZM23.2404 9.77588C23.6781 9.77617 24.1116 9.86268 24.516 10.0305C24.9203 10.1983 25.2877 10.4441 25.597 10.7539C25.9064 11.0636 26.1517 11.4313 26.319 11.8359C26.4863 12.2405 26.5722 12.674 26.5719 13.1118C26.5716 13.5496 26.4851 13.9831 26.3173 14.3874C26.1495 14.7918 25.9037 15.1591 25.5939 15.4685C25.2842 15.7779 24.9165 16.0232 24.5119 16.1904C24.1073 16.3577 23.6738 16.4437 23.236 16.4434C22.3518 16.4428 21.5041 16.091 20.8793 15.4654C20.2545 14.8398 19.9038 13.9916 19.9044 13.1074C19.905 12.2233 20.2568 11.3756 20.8824 10.7508C21.508 10.126 22.3562 9.7753 23.2404 9.77588Z" fill="white"/>
</g>
<defs>
<clipPath id="clip0_114_97">
<rect width="35" height="35" fill="white"/>
</clipPath>
</defs>
</svg>
